:FULLY-SPECIFIED
:FORCE-ALL-JOINTS-BE-3DOF
:DEGREES
238
root 5.54836 15.6283 -25.8241 9.66523 23.7515 -8.12392
lfemur -42.8575 35.7374 -7.03644
ltibia 54.2632 0 0
lfoot -14.1765 9.53344 0
ltoes -5.42591 0 0
rfemur -16.1653 -11.9823 5.27791
rtibia 32.5316 0 0
rfoot -39.9596 -9.00452 0
rtoes 56.5689 0 0
lowerback 1.11119 -2.36959 3.24815
upperback -1.36454 -3.0121 3.86198
thorax -1.98509 -1.51721 2.23806
lowerneck -10.3125 -1.85453 -0.0789778
upperneck 1.44405 -2.43688 -0.391621
head 2.22675 -1.22543 -0.233296
lclavicle 6.65071e-14 2.24016e-14 0
lhumerus -55.2506 -32.5174 122.399
lradius 63.0816 0 0
lwrist 19.7213 0 0
lhand 5.3587 13.3315 0
lfingers 7.12502 0 0
lthumb 30.709 40.7602 0
rclavicle 6.65071e-14 2.24016e-14 0
rhumerus -34.5541 -25.348 -69.3712
rradius 101.251 0 0
rwrist -62.4025 0 0
rhand -12.4663 -21.1161 0
rfingers 7.12502 0 0
rthumb 13.3213 -768.289 0
239
root 5.65072 15.6591 -25.8088 9.48089 25.5105 -8.1511
lfemur -43.2429 35.3468 -8.07462
ltibia 53.9091 0 0
lfoot -14.513 9.37744 0
ltoes -2.10601 0 0
rfemur -14.8992 -10.2826 5.15916
rtibia 32.1184 0 0
rfoot -40.7955 -11.5138 0
rtoes 56.3217 0 0
lowerback 1.02484 -2.4563 3.27099
upperback -1.44752 -3.12374 4.03554
thorax -2.013 -1.57213 2.40466
lowerneck -10.1156 -2.13247 -0.153872
upperneck 1.56112 -2.79665 -0.415299
head 2.23092 -1.40564 -0.245059
lclavicle 6.46299e-14 2.39536e-14 0
lhumerus -55.4307 -31.9108 122.567
lradius 63.2928 0 0
lwrist 19.6704 0 0
lhand 4.50578 12.9986 0
lfingers 7.12502 0 0
lthumb 29.8985 40.6042 0
rclavicle 6.46299e-14 2.39536e-14 0
rhumerus -34.8345 -27.2777 -68.8819
rradius 98.4128 0 0
rwrist -61.62 0 0
rhand -18.9446 -20.7622 0
rfingers 7.12502 0 0
rthumb 7.35864 -770.614 0
240
root 5.75929 15.6931 -25.7942 9.32419 27.3254 -8.04665
lfemur -43.372 34.7157 -8.98568
ltibia 53.4408 0 0
lfoot -14.9384 8.8707 0
ltoes 1.67134 0 0
rfemur -13.7247 -8.47663 5.02293
rtibia 31.9494 0 0
rfoot -41.77 -14.2023 0
rtoes 56.6573 0 0
lowerback 0.907727 -2.54239 3.22518
upperback -1.50285 -3.24054 4.11228
thorax -1.99518 -1.6292 2.50682
lowerneck -9.97233 -2.4659 -0.18486
upperneck 1.66385 -3.23884 -0.366931
head 2.23982 -1.62429 -0.245735
lclavicle 5.43386e-14 2.07864e-14 0
lhumerus -55.5717 -31.6053 122.688
lradius 63.4009 0 0
lwrist 19.402 0 0
lhand 3.97215 12.7359 0
lfingers 7.12502 0 0
lthumb 29.3915 40.4531 0
rclavicle 5.43386e-14 2.07864e-14 0
rhumerus -35.3095 -27.8843 -68.3627
rradius 94.8242 0 0
rwrist -57.0546 0 0
rhand -22.421 -21.7522 0
rfingers 7.12502 0 0
rthumb 4.16864 -773.099 0
241
root 5.87604 15.7302 -25.7789 9.16122 29.2207 -7.83163
lfemur -43.2124 33.8029 -9.7979
ltibia 52.7806 0 0
lfoot -15.5142 8.04869 0
ltoes 6.03489 0 0
rfemur -12.5289 -6.4517 4.8555
rtibia 31.8947 0 0
rfoot -43.1508 -17.2425 0
rtoes 57.7288 0 0
lowerback 0.753881 -2.64089 3.12662
upperback -1.53706 -3.3788 4.10286
thorax -1.93558 -1.69661 2.54719
lowerneck -9.86553 -2.84274 -0.15896
upperneck 1.77215 -3.74939 -0.255678
head 2.25681 -1.87439 -0.239396
lclavicle 3.66052e-14 1.37397e-14 0
lhumerus -55.7229 -31.5331 122.781
lradius 63.4232 0 0
lwrist 18.9397 0 0
lhand 3.67226 12.5217 0
lfingers 7.12502 0 0
lthumb 29.1063 40.2986 0
rclavicle 3.66052e-14 1.37397e-14 0
rhumerus -35.9106 -27.402 -67.6634
rradius 90.4664 0 0
rwrist -49.117 0 0
rhand -23.7974 -23.8532 0
rfingers 7.12502 0 0
rthumb 2.90442 -775.782 0
